<?xml version="1.0" standalone="no"?>
<!DOCTYPE svg PUBLIC "-//W3C//DTD SVG 20010904//EN"
 "http://www.w3.org/TR/2001/REC-SVG-20010904/DTD/svg10.dtd">
<svg version="1.0" xmlns="http://www.w3.org/2000/svg"
 width="700.000000pt" height="700.000000pt" viewBox="0 0 700.000000 700.000000"
 preserveAspectRatio="xMidYMid meet">
<metadata>
Created by potrace 1.11, written by Peter Selinger 2001-2013
</metadata>
<g transform="translate(0.000000,700.000000) scale(0.100000,-0.100000)"
fill="#000000" stroke="none">
<path d="M2035 6828 c-9 -29 -57 -348 -84 -568 -87 -688 -87 -806 0 -1420 63
-450 179 -1009 290 -1403 17 -60 29 -111 27 -113 -3 -2 -40 71 -83 164 -252
538 -422 1093 -515 1678 l-11 71 -115 34 c-63 18 -118 35 -123 38 -4 3 -48
105 -96 226 -74 188 -202 476 -286 648 -16 33 -29 47 -43 47 -41 0 -731 -43
-735 -46 -2 -2 6 -18 17 -36 11 -18 59 -106 106 -196 288 -545 555 -1235 715
-1849 l39 -153 -339 0 c-209 0 -339 -4 -339 -10 0 -10 462 -3110 481 -3221
l10 -66 87 -50 c335 -195 885 -332 1612 -402 372 -36 1057 -47 1410 -22 738
51 1292 159 1690 328 103 44 280 141 280 154 0 3 110 743 245 1645 135 901
245 1639 245 1641 0 2 -38 3 -85 3 -47 0 -85 3 -85 6 0 24 193 361 328 572
l85 133 -59 51 c-33 28 -130 122 -216 208 l-157 158 -59 -91 c-72 -113 -175
-284 -200 -335 -11 -20 -27 -89 -36 -152 -20 -130 -67 -370 -94 -475 l-18 -70
-237 -3 c-130 -1 -237 0 -237 4 0 3 13 71 30 150 38 183 76 450 90 629 6 77
15 177 18 222 l7 82 156 -112 c86 -62 168 -122 184 -134 15 -13 31 -23 36 -23
14 0 339 625 339 654 0 15 -556 453 -565 444 -2 -2 -33 -86 -70 -188 -120
-333 -230 -590 -381 -892 -51 -102 -103 -201 -115 -220 l-21 -33 6 264 c9 391
36 741 90 1196 14 110 21 203 18 206 -11 10 -594 290 -598 287 -9 -10 -73
-438 -100 -675 -15 -137 -19 -152 -33 -141 -30 23 -155 132 -235 206 -77 70
-80 72 -89 50 -21 -57 -120 -410 -161 -575 -171 -694 -266 -1488 -266 -2239
l0 -201 -28 -6 c-15 -3 -89 -9 -164 -13 -128 -6 -136 -6 -141 12 -4 10 -15
111 -26 224 -51 513 -63 761 -66 1360 -1 304 -7 556 -14 615 -28 247 -43 540
-48 958 l-6 448 -21 -7 c-24 -7 -491 -181 -578 -216 l-58 -23 1 -145 c1 -80 4
-192 8 -248 l6 -104 124 -69 c68 -38 126 -71 129 -73 7 -8 39 -282 56 -486 15
-173 36 -562 31 -568 -1 -1 -55 47 -121 107 l-119 110 -8 -37 c-21 -98 -78
-455 -96 -602 -38 -315 -61 -663 -61 -928 l0 -142 -72 36 c-104 52 -208 123
-220 150 -8 17 -6 77 6 216 68 797 40 1532 -90 2307 -18 113 -32 206 -30 208
2 2 85 -36 184 -86 l179 -90 17 147 c17 148 60 446 92 644 10 59 16 109 13
112 -4 3 -605 116 -622 116 -4 0 -10 -6 -12 -12z m2495 -1706 c103 -63 399
-268 493 -339 44 -34 57 -50 57 -71 0 -43 -59 -386 -96 -557 -48 -220 -104
-437 -171 -650 -30 -99 -58 -188 -60 -197 -3 -10 -28 -35 -57 -57 -120 -91
-296 -183 -461 -239 -97 -33 -304 -86 -311 -79 -2 2 10 37 27 78 138 335 282
839 359 1258 51 276 100 688 100 837 0 57 5 74 20 74 3 0 48 -26 100 -58z"/>
</g>
</svg>
